<?xml version="1.0" encoding="iso-8859-1"?>
<!-- Generator: Adobe Illustrator 19.0.0, SVG Export Plug-In . SVG Version: 6.00 Build 0)  -->
<svg version="1.1" id="Layer_1" xmlns="http://www.w3.org/2000/svg" xmlns:xlink="http://www.w3.org/1999/xlink" x="0px" y="0px"
	 viewBox="0 0 512 512" style="enable-background:new 0 0 512 512;" xml:space="preserve">
<g>
	<circle style="fill:#29ABE2;" cx="236.805" cy="127.857" r="117.658"/>
	<path style="fill:#29ABE2;" d="M400.386,318.357c-40.29-44.716-98.647-72.835-163.577-72.835
		c-121.571,0-220.125,98.553-220.125,220.125h313.895c-11.771-15.428-18.767-34.695-18.767-55.599
		C311.812,360.44,351.185,320.034,400.386,318.357z"/>
</g>
<path style="fill:#BDCCD4;" d="M483.964,365.817l-36.341,36.341l-25.189,25.189l-38.945-38.945l39.778-39.778l20.88-20.88
	c-12.236-6.045-26.012-9.448-40.584-9.448c-1.065,0-2.122,0.024-3.179,0.061c-49.201,1.676-88.574,42.083-88.574,91.692
	c0,20.903,6.996,40.171,18.767,55.599c16.763,21.97,43.217,36.152,72.987,36.152c50.674,0,91.752-41.079,91.752-91.752
	C495.316,394.009,491.197,378.935,483.964,365.817z"/>
<path style="fill:#FF931E;" d="M422.435,427.347l61.53-61.53c-9.047-16.409-22.97-29.749-39.817-38.073l-60.658,60.658
	L422.435,427.347z"/>
<path d="M138.43,300.637c-44.199,26.405-76.418,70.135-88.394,119.975c-1.317,5.477,2.057,10.984,7.534,12.3
	c0.801,0.193,1.602,0.285,2.392,0.285c4.606,0,8.785-3.143,9.909-7.819c10.703-44.538,39.505-83.622,79.021-107.23
	c4.835-2.888,6.414-9.151,3.525-13.986C149.526,299.325,143.264,297.748,138.43,300.637z"/>
<path d="M236.809,273.563c-15.038,0-30.016,1.745-44.517,5.187c-5.481,1.3-8.869,6.798-7.568,12.279
	c1.113,4.69,5.296,7.846,9.915,7.846c0.78,0,1.572-0.09,2.363-0.278c12.961-3.076,26.354-4.636,39.807-4.636
	c5.633,0,10.199-4.566,10.199-10.199S242.442,273.563,236.809,273.563z"/>
<path d="M492.896,360.893c-10.132-18.378-25.427-33.002-44.231-42.292c-13.733-6.785-28.479-10.303-43.845-10.486
	c-1.686-1.798-3.396-3.58-5.148-5.331c-29.761-29.762-66.236-50.37-106.007-60.423c42.048-20.964,71.004-64.411,71.004-114.5
	C364.669,57.358,307.311,0,236.809,0S108.948,57.358,108.948,127.86c0,50.089,28.957,93.536,71.004,114.5
	c-39.771,10.053-76.245,30.661-106.007,60.423c-43.502,43.502-67.46,101.341-67.46,162.864c0,5.633,4.566,10.199,10.199,10.199
	h309.072C344.472,497.944,372.406,512,403.564,512c56.216,0,101.951-45.735,101.951-101.951
	C505.515,392.864,501.152,375.866,492.896,360.893z M471.076,364.281l-48.641,48.642l-24.521-24.521l48.04-48.039
	C455.973,346.453,464.5,354.571,471.076,364.281z M403.283,422.619l-21.86,6.795l6.795-21.86L403.283,422.619z M129.346,127.86
	c0-59.254,48.208-107.462,107.463-107.462S344.271,68.606,344.271,127.86s-48.208,107.463-107.462,107.463
	S129.346,187.116,129.346,127.86z M27.128,455.448c5.338-111.036,97.347-199.727,209.681-199.727
	c54.696,0,104.564,21.035,141.963,55.431c-44.274,11.103-77.159,51.23-77.159,98.897c0,16.302,3.852,31.72,10.686,45.4H27.128z
	 M403.564,491.602c-44.968,0-81.553-36.585-81.553-81.553s36.585-81.553,81.553-81.553c7.659,0,15.125,1.034,22.325,3.083
	l-49.612,49.611c-1.212,1.212-2.049,2.654-2.523,4.184l-0.004,0.001l-0.027,0.086c-0.006,0.02-0.012,0.04-0.018,0.06l-17.52,56.365
	c-1.125,3.618-0.151,7.561,2.527,10.24c1.942,1.942,4.548,2.987,7.213,2.987c1.012,0,2.032-0.151,3.026-0.46l56.365-17.52
	c0.02-0.006,0.04-0.012,0.06-0.018l0.086-0.027l0.001-0.004c1.53-0.474,2.972-1.312,4.184-2.523l51.043-51.044
	c2.916,8.497,4.427,17.481,4.427,26.534C485.117,455.017,448.532,491.602,403.564,491.602z"/>
<g>
</g>
<g>
</g>
<g>
</g>
<g>
</g>
<g>
</g>
<g>
</g>
<g>
</g>
<g>
</g>
<g>
</g>
<g>
</g>
<g>
</g>
<g>
</g>
<g>
</g>
<g>
</g>
<g>
</g>
</svg>
